# xmcd
#
# Track frame offsets: 
#        150
#        16611
#        30499
#        43916
#        57227
#        72103
#
# Disc length: 1178 seconds
#
# Revision: 0
# Processed by: cddbd v1.5.2PL0 Copyright (c) Steve Scherf et al.
# Submitted via: ExactAudioCopy v0.99pb3
#
DISCID=43049806
DTITLE=The Bigger Lights - The Bigger Lights (EP)
DYEAR=2009
DGENRE=Pop Punk
TTITLE0=Closer (Time Stops Breathing)
TTITLE1=Revved And Ready
TTITLE2=Apocalypse!
TTITLE3=Romance In A Slow Dance
TTITLE4=Goldmine Valentine
TTITLE5=When Did We Lose Ourselves
EXTD=
EXTT0=
EXTT1=
EXTT2=
EXTT3=
EXTT4=
EXTT5=
PLAYORDER=
